<?xml version="1.0" standalone="no"?>
<!DOCTYPE svg PUBLIC "-//W3C//DTD SVG 1.1//EN" "http://www.w3.org/Graphics/SVG/1.1/DTD/svg11.dtd" >
<svg xmlns="http://www.w3.org/2000/svg" xmlns:xlink="http://www.w3.org/1999/xlink" version="1.1">
<metadata>
Created by FontForge 20170924 at Sun Apr 10 21:07:33 2005
 By www-data
Copyright NovaMute 1995
</metadata>
<defs>
<font id="Xoireqe" horiz-adv-x="1208" >
  <font-face 
    font-family="Xoireqe"
    font-weight="5"
    font-stretch="normal"
    units-per-em="1000"
    panose-1="0 0 0 0 0 0 0 0 0 0"
    ascent="800"
    descent="-200"
    x-height="742"
    cap-height="745"
    bbox="-90 -234 1246 842"
    underline-thickness="18"
    underline-position="-131"
    unicode-range="U+0020-F000"
  />
<missing-glyph horiz-adv-x="800" 
d="M50 0v800h700v-800h-700zM700 50v700h-600v-700h600z" />
    <glyph glyph-name=".notdef" horiz-adv-x="800" 
d="M50 0v800h700v-800h-700zM700 50v700h-600v-700h600z" />
    <glyph glyph-name=".null" unicode="&#xd7;" horiz-adv-x="0" 
 />
    <glyph glyph-name=".null" unicode="&#x141;" horiz-adv-x="0" 
 />
    <glyph glyph-name=".null" unicode="&#xfd;" horiz-adv-x="0" 
 />
    <glyph glyph-name="nonmarkingreturn" horiz-adv-x="599" 
 />
    <glyph glyph-name="space" unicode=" " horiz-adv-x="599" 
 />
    <glyph glyph-name="exclam" unicode="!" horiz-adv-x="252" 
d="M36 190h190v-190h-190v190zM27 276v469h191v-469h-191z" />
    <glyph glyph-name="dollar" unicode="$" horiz-adv-x="1203" 
d="M1127 556l-897 1l1 -89l708 2q89 0 160.5 -67.5t71.5 -161.5q0 -95 -79 -171q-75 -72 -155 -72l-236 2l1 -65h-201v68h-426v190h904v86h-732q-86 0 -151 70t-65 164q0 89 67.5 157.5t145.5 68.5h257v76h196v-73l430 1v-187z" />
    <glyph glyph-name="percent" unicode="%" horiz-adv-x="1204" 
d="M640 742v-742h-69v742h69zM930 472q102 0 174 -69t72 -169q0 -95 -69.5 -161.5t-165.5 -66.5q-97 0 -167 66t-70 162q0 97 65.5 167.5t160.5 70.5zM897 274v-81h83v81h-83zM254 736q105 0 178 -62.5t73 -157.5q0 -100 -63.5 -170t-157.5 -70q-107 0 -182 66t-75 163
q0 95 66 163t161 68zM309 469v80h-83v-80h83z" />
    <glyph glyph-name="ampersand" unicode="&#x26;" horiz-adv-x="1180" 
d="M252 554l640 -151v72h188v-115l71 -20v-201l-72 16q-9 -20 -14 -32q-17 -37 -31 -54q-32 -37 -62.5 -54.5t-73.5 -17.5h-622q-117 0 -184 82q-62 76 -62 192q0 50 12 94q13 36 27 73q-10 17 -15 30q-15 39 -15 84q8 84 61 139.5t132 55.5h846l-3 -193h-823zM229 193
l629 1l-629 146v-147z" />
    <glyph glyph-name="quotesingle" unicode="'" horiz-adv-x="210" 
d="M196 681v-195q0 -17 -18 -48.5t-41.5 -49.5t-57 -29.5t-53.5 -11.5q-4 0 -6.5 1.5t-3.5 2.5l3 129h44l-1 64h-49v137h183z" />
    <glyph glyph-name="parenleft" unicode="(" horiz-adv-x="230" 
d="M215 681h-55v-614h55v-156q0 -5 -9 -5q-21 0 -59.5 17.5t-63.5 40.5q-36 32 -52.5 65t-16.5 80v543q0 44 14 75.5t46 62t63.5 41.5t77.5 11v-161z" />
    <glyph glyph-name="parenright" unicode=")" horiz-adv-x="227" 
d="M214 647v-544q0 -46 -16.5 -79.5t-52.5 -64.5q-25 -22 -65 -40.5t-59 -18.5q-5 0 -7 2t-2 3v157h55v614h-55v161q46 0 77.5 -11.5t63.5 -41.5t46.5 -61.5t14.5 -75.5z" />
    <glyph glyph-name="asterisk" unicode="*" horiz-adv-x="520" 
d="M433 546l-50 -90h106v-125h-104l52 -95l-114 -65l-59 86l-55 -86l-119 65l51 95h-110v125h119l-62 92l118 66l55 -90l53 90z" />
    <glyph glyph-name="comma" unicode="," horiz-adv-x="237" 
d="M209 136v-195q0 -15 -18 -48t-39.5 -50t-57.5 -29.5t-54 -12.5q-4 0 -6 1t-3 3l2 130h44l-1 65h-49v136h182z" />
    <glyph glyph-name="period" unicode="." horiz-adv-x="281" 
d="M248 201v-201h-215v201h215z" />
    <glyph glyph-name="slash" unicode="/" horiz-adv-x="1005" 
d="M5 0l735 742h259l-734 -742h-260z" />
    <glyph glyph-name="zero" unicode="0" 
d="M1115 498v-252q0 -50 -13 -86.5t-46 -73.5q-37 -43 -78 -62t-98 -19h-535q-57 0 -98 17t-80 56t-57 78t-18 90v283q0 51 21 89t64 71q37 28 76 41.5t90 13.5h523q60 0 105.5 -19.5t83.5 -63.5q32 -37 46 -75t14 -88zM935 200v353h-658v-353h658z" />
    <glyph glyph-name="one" unicode="1" 
d="M645 0v564l-141 -143l-132 143l127 120q64 59 149 59q76 0 126 -44q59 -52 59 -147l2 -552h-190z" />
    <glyph glyph-name="two" unicode="2" 
d="M996 -3l-796 3v265q0 39 10 68.5t34 60.5q29 37 62.5 56t78.5 19h489v95h-679v181h657q31 0 58 -15q19 -11 47 -38q23 -22 39 -59.5t16 -54.5v-109q0 -22 -10 -53.5t-28 -56.5q-22 -30 -58.5 -52t-60.5 -22h-509v-92h650v-196z" />
    <glyph glyph-name="three" unicode="3" 
d="M1100 594q13 -33 13 -71q0 -50 -21 -103q-7 -17 -22 -43q16 -19 24 -34q24 -45 24 -98q0 -28 -5.5 -52.5t-20.5 -58.5q-31 -67 -84 -99t-126 -32h-790v190h834v83h-837v193h837v87h-837v189h774q84 0 145.5 -38t91.5 -113z" />
    <glyph glyph-name="four" unicode="4" 
d="M1104 747v-351h80v-195h-77v-204l-193 3v204h-605q-73 0 -115 13q-51 16 -93 57.5t-59.5 86.5t-17.5 105v279h202v-349h685v351h193z" />
    <glyph glyph-name="five" unicode="5" 
d="M266 558v-83h633q93 0 160 -62t75 -156l1 -24q0 -105 -83 -169t-217 -64h-759v195h867v84h-870l1 464h1016v-185h-824z" />
    <glyph glyph-name="six" unicode="6" 
d="M266 552v-83h646q94 0 159 -68t65 -164q0 -98 -69.5 -167.5t-168.5 -69.5h-599q-105 0 -174 89q-30 37 -41.5 75t-11.5 90v248q0 95 67 168q42 46 101 61q43 11 126 11l731 -1v-189h-831zM944 197v79h-675v-79h675z" />
    <glyph glyph-name="seven" unicode="7" 
d="M1122 549q0 -51 -22 -88t-67 -67l-593 -397h-332l829 552h-851v193h834q82 0 142 -56t60 -137z" />
    <glyph glyph-name="eight" unicode="8" 
d="M75 227q0 50 23 101q7 17 24 41q-16 30 -24 49q-24 59 -24 109q0 38 14 67q37 74 95 112.5t138 38.5h582q82 0 142 -46t82 -127q5 -22 5 -41q0 -47 -23 -105q-7 -19 -23 -49q16 -23 24 -39q24 -49 24 -102t-26 -105q-33 -65 -98 -98q-60 -30 -145 -30h-517
q-78 0 -134.5 25.5t-100.5 85.5q-21 28 -29.5 56t-8.5 57zM271 475h666v89h-666v-89zM271 198h668v78h-668v-78z" />
    <glyph glyph-name="nine" unicode="9" 
d="M1141 499v-262q0 -53 -19.5 -93.5t-59.5 -77.5t-76 -53t-85 -16l-793 3v193h840v86h-638q-99 0 -171 66t-72 163q0 99 75.5 166.5t178.5 67.5h555q64 0 107.5 -16.5t86.5 -61.5q38 -39 54.5 -76t16.5 -89zM948 466v86h-696v-86h696z" />
    <glyph glyph-name="colon" unicode=":" horiz-adv-x="296" 
d="M256 610v-210h-215v210h215zM256 318v-207h-215v207h215z" />
    <glyph glyph-name="semicolon" unicode=";" horiz-adv-x="300" 
d="M264 382v-153h-229v153h229zM261 150v-212q0 -38 -19 -71.5t-47 -56.5q-33 -27 -80 -37q-32 -7 -75 -7v156h64v78h-69v150h226z" />
    <glyph glyph-name="question" unicode="?" horiz-adv-x="1116" 
d="M856 282h-389v187h442v87h-895v186h831q104 0 178 -61q79 -65 79 -162q0 -101 -73 -169t-173 -68zM657 190v-193h-193v193h193z" />
    <glyph glyph-name="A" unicode="A" horiz-adv-x="1034" 
d="M307 561q46 90 84 129q54 55 129 55q71 0 125 -59q34 -38 82 -130l287 -559l-204 3l-111 195h-366l-102 -195l-211 -3zM517 544l-88 -158h175z" />
    <glyph glyph-name="B" unicode="B" horiz-adv-x="1156" 
d="M1096 517q0 -50 -21 -100q-7 -16 -21 -40q20 -28 29 -45q29 -53 29 -90q0 -105 -74.5 -173.5t-174.5 -68.5h-820v745h787q102 0 154 -26q69 -34 100 -130q6 -16 9 -36.5t3 -35.5zM239 556v-84h660v84h-660zM242 279v-86h665v86h-665z" />
    <glyph glyph-name="C" unicode="C" horiz-adv-x="1070" 
d="M202 558v-372h859v-186h-808q-57 0 -97 15.5t-78 54.5q-34 35 -51 69.5t-17 79.5v251q0 78 16 124q20 57 71 99q41 33 90 44q33 7 103 7h771v-186h-859z" />
    <glyph glyph-name="D" unicode="D" horiz-adv-x="1124" 
d="M832 745q64 0 109 -18.5t84 -64.5q29 -35 43.5 -71t14.5 -80v-277q0 -47 -16.5 -84.5t-49.5 -73.5q-40 -42 -84.5 -60.5t-103.5 -18.5l-787 3v745h790zM232 558v-374h658v374h-658z" />
    <glyph glyph-name="E" unicode="E" horiz-adv-x="1077" 
d="M1056 556h-848v-87h848v-193l-843 -2v-79h843v-198h-776q-66 0 -111.5 19.5t-87.5 67.5q-32 39 -46.5 73t-14.5 80v271q0 56 17.5 97t57.5 78.5t82 50.5t105 13h774v-191z" />
    <glyph glyph-name="F" unicode="F" horiz-adv-x="1044" 
d="M85 670q41 43 96 58q41 11 117 11h734v-190h-828v-80h826v-187h-826v-282h-185v502q0 53 15 91t51 77z" />
    <glyph glyph-name="G" unicode="G" horiz-adv-x="1111" 
d="M1083 745v-187h-868v-363h675v84h-332v193h522v-238q0 -45 -14 -78.5t-47 -71.5q-41 -48 -98 -66q-47 -15 -123 -15h-497q-67 0 -110 14q-51 17 -92 59q-36 37 -53.5 75.5t-17.5 88.5v298q0 34 22.5 75t60.5 74t86.5 45.5t100.5 12.5h785z" />
    <glyph glyph-name="H" unicode="H" horiz-adv-x="1160" 
d="M914 472v273h193v-745h-196v282h-665v-282h-194v745h185v-273h677z" />
    <glyph glyph-name="I" unicode="I" horiz-adv-x="298" 
d="M45 -6v751h207v-751h-207z" />
    <glyph glyph-name="J" unicode="J" horiz-adv-x="1117" 
d="M865 -3l-596 3q-94 0 -163 78q-25 29 -45 82.5t-20 82.5q0 17 7 17h190v-67h647v549h190v-533q0 -42 -11 -71.5t-38 -59.5q-37 -42 -73.5 -61.5t-87.5 -19.5z" />
    <glyph glyph-name="K" unicode="K" horiz-adv-x="1082" 
d="M425 372l640 -372h-387l-334 193q-48 28 -75 53q-33 32 -47 71v-317h-206v745h206v-322q16 41 56 76q27 23 78 54l322 191h382z" />
    <glyph glyph-name="L" unicode="L" horiz-adv-x="1003" 
d="M-15 747h193v-552h840v-195h-804q-40 0 -81 17t-77 51t-53.5 72t-17.5 89v518z" />
    <glyph glyph-name="M" unicode="M" horiz-adv-x="1200" 
d="M53 560q0 72 45 124t116 59q79 0 136 -45q51 -40 81 -114l167 -415l183 437q27 65 70 100q47 38 112 38q83 0 135 -63q49 -59 49 -144v-537h-179v547l-177 -390q-47 -103 -83.5 -135.5t-86.5 -38.5q-77 0 -134 53q-44 41 -81 122l-174 382v-545l-179 5v560z" />
    <glyph glyph-name="N" unicode="N" horiz-adv-x="1121" 
d="M231 760q40 0 79 -19t75 -54l503 -500v555h188v-544q0 -66 -23 -111.5t-76 -75.5q-19 -10 -42 -16t-43 -6q-42 0 -80.5 18.5t-75.5 54.5l-503 496v-561l-187 3v581q0 56 28 96t82 65q38 18 75 18z" />
    <glyph glyph-name="O" unicode="O" horiz-adv-x="1134" 
d="M1033 650q28 -34 40.5 -67.5t12.5 -77.5v-276q0 -48 -16.5 -84t-53 -73t-74 -53t-91.5 -16h-569q-59 0 -99 17.5t-78 60.5q-32 36 -45 72.5t-13 86.5v282q0 49 22 88q19 34 59.5 69.5t82 49t98.5 13.5h545q57 0 100 -22.5t79 -69.5zM238 190h654v359h-654v-359z" />
    <glyph glyph-name="P" unicode="P" horiz-adv-x="1103" 
d="M851 276h-641v-279l-198 3l2 745h815q105 0 182 -64q81 -68 81 -168q0 -98 -70.5 -167.5t-170.5 -69.5zM896 461v95h-686v-95h686z" />
    <glyph glyph-name="Q" unicode="Q" horiz-adv-x="1134" 
d="M17 513q0 52 15.5 87t53 72t77.5 52t94 15h536q64 0 110 -20t83 -67q28 -34 40.5 -64t12.5 -72v-318h77v-198l-864 -3q-50 0 -95 20q-30 13 -80 48q-21 15 -39 54q-21 45 -21 87v307zM191 548v-353h665v353h-665z" />
    <glyph glyph-name="R" unicode="R" horiz-adv-x="1125" 
d="M1046 616q14 -24 21.5 -52.5t7.5 -52.5q0 -47 -21 -94q-7 -15 -21 -37q16 -22 24 -37q25 -47 25 -89v-254h-190v279h-655v-279h-194l1 743l806 -1q66 0 113 -32t83 -94zM889 556h-647v-90h647v90z" />
    <glyph glyph-name="S" unicode="S" horiz-adv-x="1201" 
d="M918 0l-837 -3v190h895v89h-690q-103 0 -177.5 66t-74.5 166q0 101 86 168q81 63 191 63l806 5v-187l-881 -1v-90h680q101 0 176 -69t75 -168q0 -97 -74 -163t-175 -66z" />
    <glyph glyph-name="T" unicode="T" horiz-adv-x="1084" 
d="M1066 556h-430l1 -556h-187l-4 553h-429v191h1049v-188z" />
    <glyph glyph-name="U" unicode="U" horiz-adv-x="1151" 
d="M909 187v558h196v-528q0 -43 -16 -75.5t-49.5 -68t-74.5 -54.5t-81 -19l-610 -3q-54 0 -93 23.5t-78 71.5q-30 37 -44 70.5t-14 77.5v505h193v-558h671z" />
    <glyph glyph-name="V" unicode="V" horiz-adv-x="1070" 
d="M833 745h212l-315 -603q-37 -71 -77 -105q-50 -43 -116 -43q-73 0 -128 51q-42 39 -85 123l-298 574h215l293 -555z" />
    <glyph glyph-name="W" unicode="W" horiz-adv-x="1292" 
d="M467 616q20 70 69.5 109.5t123.5 39.5q62 0 105.5 -38t63.5 -102l124 -419l105 539h188l-111 -588q-14 -72 -63 -117.5t-119 -45.5t-119.5 41.5t-68.5 111.5l-113 409l-122 -406q-21 -70 -71.5 -111.5t-124.5 -41.5q-69 0 -116.5 45t-60.5 117l-110 586h196l100 -550z
" />
    <glyph glyph-name="X" unicode="X" horiz-adv-x="1005" 
d="M1021 0h-229l-207 220q-25 26 -49.5 52.5t-34.5 54.5q-8 -24 -25 -47q-25 -30 -38 -46l-193 -234h-246l318 374l-332 371h249l210 -248q26 -30 33 -40q15 -21 23 -42q9 29 43 67l36 40l194 223h243l-315 -374z" />
    <glyph glyph-name="Y" unicode="Y" horiz-adv-x="1059" 
d="M260 745l271 -340l273 340h233l-409 -525v-220h-185v220l-420 525h237z" />
    <glyph glyph-name="Z" unicode="Z" horiz-adv-x="1224" 
d="M1032 363l-749 -165h870v-195h-889q-92 0 -158 54q-72 59 -72 147q0 67 41 117t106 64l790 173h-906v189h925q82 0 140.5 -57.5t58.5 -143.5q0 -69 -43.5 -118.5t-113.5 -64.5z" />
    <glyph glyph-name="a" unicode="a" horiz-adv-x="1034" 
d="M220 0l102 195h366l111 -195l204 -3l-287 559q-48 94 -81 130q-53 59 -126 59q-75 0 -129 -55q-38 -38 -84 -129l-287 -564zM418 386l88 158l87 -158h-175z" />
    <glyph glyph-name="b" unicode="b" horiz-adv-x="1156" 
d="M830 745h-787v-745h820q100 0 174.5 68.5t74.5 173.5q0 36 -29 89q-9 17 -29 46q14 23 21 39q21 50 21 101q0 34 -12 72q-32 96 -100 130q-51 26 -154 26zM899 472h-660v84h660v-84zM907 193h-665v86h665v-86z" />
    <glyph glyph-name="c" unicode="c" horiz-adv-x="1066" 
d="M1020 744h-771q-70 0 -111 -8.5t-82 -42.5q-50 -41 -68.5 -94t-18.5 -129v-251q0 -44 17.5 -79.5t50.5 -69.5q38 -40 77.5 -55t97.5 -15h808v186h-859v372h859v186z" />
    <glyph glyph-name="d" unicode="d" horiz-adv-x="1124" 
d="M38 0l787 -3q61 0 104.5 17.5t83.5 61.5q34 36 50 73t16 85v277q0 45 -13.5 80t-44.5 71q-37 44 -83 63.5t-110 19.5h-790v-745zM886 184h-658v374h658v-374z" />
    <glyph glyph-name="e" unicode="e" horiz-adv-x="1048" 
d="M245 747q-62 0 -105 -13t-83 -50.5t-57 -78.5t-17 -97v-271q0 -48 13.5 -80.5t47.5 -72.5q39 -47 86.5 -67t112.5 -20h776v198h-843v79l843 2v193h-848v87h848v191h-774z" />
    <glyph glyph-name="f" unicode="f" horiz-adv-x="1037" 
d="M-16 0h185v282h826v187h-826v80h828v190h-734q-76 0 -117 -11q-55 -15 -96 -58q-35 -38 -50.5 -77t-15.5 -91v-502z" />
    <glyph glyph-name="g" unicode="g" horiz-adv-x="1078" 
d="M73 687q-36 -31 -59.5 -74t-23.5 -75v-298q0 -50 17.5 -88.5t53.5 -75.5q41 -43 87 -58t115 -15h497q78 0 122 14q56 18 99 67q31 36 46 71t15 79v238h-522v-193h332v-84h-675v363h868v187h-785q-55 0 -94 -10q-54 -14 -93 -48z" />
    <glyph glyph-name="h" unicode="h" horiz-adv-x="1160" 
d="M239 745h-186v-745h194v282h665v-282h197v745h-193v-273h-677v273z" />
    <glyph glyph-name="i" unicode="i" horiz-adv-x="298" 
d="M251 745h-207v-751h207v751z" />
    <glyph glyph-name="j" unicode="j" horiz-adv-x="1117" 
d="M1076 209v533h-190v-549h-647v67h-190q-7 0 -7 -17q0 -32 19 -83t46 -82q69 -78 163 -78l596 -3q49 0 87 20t74 61q49 55 49 131z" />
    <glyph glyph-name="k" unicode="k" horiz-adv-x="1082" 
d="M650 744l-322 -191q-52 -30 -79 -54q-40 -35 -55 -76v322h-206v-745h206v317q13 -38 47 -70q29 -28 75 -54l334 -193h387l-640 372l635 372h-382z" />
    <glyph glyph-name="l" unicode="l" horiz-adv-x="1003" 
d="M-4 67q35 -34 75.5 -50.5t81.5 -16.5h804v195h-840v552h-193v-518q0 -50 17.5 -88.5t54.5 -73.5z" />
    <glyph glyph-name="m" unicode="m" horiz-adv-x="1200" 
d="M231 -5v545l174 -382q37 -82 80 -122q56 -53 135 -53q62 7 105 59q28 34 65 115l177 390v-547h179v537q0 83 -49 143q-53 64 -135 64q-64 0 -111 -38q-43 -35 -71 -100l-183 -437l-167 415q-29 73 -80 114q-57 45 -137 45q-70 -7 -115.5 -59t-45.5 -124v-560z" />
    <glyph glyph-name="n" unicode="n" horiz-adv-x="1121" 
d="M43 581v-581l187 -3v561l503 -496q35 -34 75 -53.5t81 -19.5q44 0 85 22q52 29 75.5 76t23.5 111v544h-188v-555l-503 500q-35 34 -74 53.5t-80 19.5q-37 0 -75 -18q-52 -24 -81 -65t-29 -96z" />
    <glyph glyph-name="o" unicode="o" horiz-adv-x="1135" 
d="M310 742q-58 0 -98 -12.5t-82 -49.5t-60 -69q-22 -39 -22 -89v-282q0 -52 12 -86.5t47.5 -74.5t77 -58t98.5 -18h569q53 0 90.5 16t75 53.5t53.5 72.5t16 84v276q0 44 -12.5 76.5t-40.5 68.5q-37 47 -79 69.5t-100 22.5h-545zM893 549v-359h-654v359h654z" />
    <glyph glyph-name="p" unicode="p" horiz-adv-x="1103" 
d="M797 745h-815l-2 -745l198 -3v279h641q99 0 170 69t71 168q0 100 -78.5 166t-184.5 66zM178 556h686v-95h-686v95z" />
    <glyph glyph-name="q" unicode="q" horiz-adv-x="1180" 
d="M70 65q46 -32 79 -47q47 -21 96 -21l864 3v198h-77v318q0 69 -53 136q-37 46 -83.5 66.5t-109.5 20.5h-536q-57 0 -95 -14.5t-75 -51t-53.5 -73.5t-16.5 -87v-307q0 -42 19 -84t41 -57zM849 195h-665v353h665v-353z" />
    <glyph glyph-name="r" unicode="r" horiz-adv-x="1125" 
d="M43 743l-1 -743h194v279h655v-279h190v254q0 44 -24 89q-8 15 -25 37q14 22 21 37q21 46 21 94q0 24 -7 51t-22 54q-37 63 -81 93q-49 33 -115 33zM241 466v90h647v-90h-647z" />
    <glyph glyph-name="s" unicode="s" horiz-adv-x="1201" 
d="M907 466h-680v90l881 1v187l-806 -5q-111 0 -191 -62q-86 -67 -86 -169q0 -98 75 -165t177 -67h690v-89h-895v-190l837 3q100 0 174.5 65.5t74.5 163.5q0 100 -74.5 168.5t-176.5 68.5z" />
    <glyph glyph-name="t" unicode="t" horiz-adv-x="1086" 
d="M-10 744v-191h429l4 -553h187l-1 556h430v188h-1049z" />
    <glyph glyph-name="u" unicode="u" horiz-adv-x="1151" 
d="M237 745h-193v-505q0 -45 13 -77t45 -71q39 -49 74 -70q41 -25 97 -25l610 3q87 0 155 73q35 37 50.5 68t15.5 76v528h-196v-558h-671v558z" />
    <glyph glyph-name="v" unicode="v" horiz-adv-x="1070" 
d="M230 742h-215l298 -574q43 -82 85 -122q55 -52 128 -52q66 0 115 42q41 35 78 106l315 603h-212l-299 -558z" />
    <glyph glyph-name="w" unicode="w" horiz-adv-x="1292" 
d="M234 745h-196l110 -586q13 -70 61 -116t116 -46q74 0 125 42t71 111l122 406l113 -409q19 -69 69 -111t119 -42q70 0 119.5 45.5t62.5 117.5l111 588h-188l-105 -539l-124 419q-19 65 -61 101q-45 39 -108 39q-73 0 -123 -40t-70 -109l-124 -421z" />
    <glyph glyph-name="x" unicode="x" horiz-adv-x="1005" 
d="M958 745h-243l-194 -223q-23 -26 -46.5 -53.5t-31.5 -53.5q-9 23 -31 51q-10 12 -26 31l-210 248h-249l332 -371l-318 -374h246l193 234l30 34q25 31 34 59q10 -29 45 -67l38 -40l207 -220h229l-320 371z" />
    <glyph glyph-name="y" unicode="y" horiz-adv-x="1059" 
d="M415 220v-220h185v220l409 525h-233l-273 -340l-271 340h-237z" />
    <glyph glyph-name="z" unicode="z" horiz-adv-x="1224" 
d="M983 747h-925v-189h906l-790 -173q-66 -14 -106.5 -63.5t-40.5 -117.5q0 -88 71 -146q68 -55 159 -55h889v195h-870l749 165q71 16 114 64.5t43 118.5q0 86 -58.5 143.5t-140.5 57.5z" />
    <glyph glyph-name="sterling" unicode="&#xa3;" horiz-adv-x="814" 
d="M479 465h300v-182h-300v-95h300v-190l-740 2v184h300v95h-304v183h308v22q0 52 6 89q10 62 36 93q34 41 70.5 60t86.5 19h235l1 -181h-299v-99z" />
    <glyph glyph-name="notequal" unicode="&#x2260;" horiz-adv-x="549" 
d="M504 336v-64h-149l-73 -72h222v-64h-281l-118 -118l-43 44l74 74h-91v64h150l73 72h-223v64h281l118 118l44 -44l-75 -74h91z" />
    <glyph glyph-name="infinity" unicode="&#x221e;" horiz-adv-x="713" 
d="M441 201q33 -23 77 -23q52 0 85 35.5t33 89.5q0 27 -8 50t-22 39q-31 34 -80 34q-39 0 -72 -36q-17 -17 -33.5 -46t-36.5 -73q22 -46 57 -70zM271 396q-35 24 -76 24q-51 0 -84.5 -35.5t-33.5 -89.5q0 -53 30 -89q31 -34 76 -34q41 0 72 31.5t74 123.5q-23 44 -58 69z
M294 144q-38 -30 -85 -30q-66 0 -111.5 53t-45.5 131q0 81 42 133.5t104 52.5q47 0 82.5 -29.5t65.5 -94.5q15 30 33 53.5t37 39.5q40 31 87 31q65 0 110.5 -52.5t45.5 -131.5q0 -83 -40.5 -134.5t-104.5 -51.5q-50 0 -84 30q-34 27 -64 94q-33 -62 -72 -94z" />
    <glyph glyph-name="plusminus" unicode="&#xb1;" horiz-adv-x="549" 
d="M43 19v68h463v-68h-463zM506 331v-68h-197v-122h-68v122h-198v68h197v122h68v-122h198z" />
    <glyph glyph-name="lessequal" unicode="&#x2264;" horiz-adv-x="549" 
d="M43 18v68h463v-68h-463zM506 173v-70l-462 145v65l462 145v-70l-344 -108z" />
    <glyph glyph-name="greaterequal" unicode="&#x2265;" horiz-adv-x="549" 
d="M43 18v68h463v-68h-463zM43 103v70l344 107l-344 108v70l463 -145v-65z" />
    <glyph glyph-name="partialdiff" unicode="&#x2202;" horiz-adv-x="494" 
d="M167 289q-33 -60 -33 -161q0 -57 21.5 -88t62.5 -31q53 0 87 62t34 153q0 58 -21.5 91.5t-63.5 33.5q-52 0 -87 -60zM365 346l3 89q0 85 -15.5 126t-47.5 41q-18 0 -50 -35t-56 -35q-16 0 -25.5 7.5t-11.5 24.5q0 30 29.5 50.5t72.5 20.5q77 0 124 -72q22 -36 34 -85
t12 -111q0 -163 -64.5 -271.5t-157.5 -108.5q-68 0 -110 51t-42 137q0 82 53 143.5t125 61.5q44 0 72.5 -22t45.5 -71q4 14 6.5 28t2.5 31z" />
    <glyph glyph-name="summation" unicode="&#x3a3;" horiz-adv-x="713" 
d="M641 514h-44q-32 105 -85 144t-169 39h-132l315 -431l-344 -394h187q122 0 172.5 31.5t82.5 116.5h45l-30 -130l-2 -7q-29 -99 -111 -99h-482l389 446l-375 514h460q65 0 82 -15q17 -13 26 -86z" />
    <glyph glyph-name="product" unicode="&#x220f;" horiz-adv-x="823" 
d="M116 704h-88v40h767v-40h-88v-880h88v-40h-264v40h84v880h-407v-880h84v-40h-264v40h88v880z" />
    <glyph glyph-name="pi" unicode="&#x3c0;" horiz-adv-x="549" 
d="M406 349q0 -53 -1 -86.5t-2 -63.5v-40q0 -84 8.5 -105t30.5 -21q26 0 41 29q8 15 12.5 37t4.5 52h25v-5q0 -80 -26 -118t-80 -38q-57 0 -80 39t-23 165l1 78l3 104l-50 1l-77 2q0 -234 -23 -311.5t-80 -77.5q-35 0 -52.5 29t-17.5 86v19h24q0 -27 9.5 -39.5t27.5 -12.5
q42 0 58 62q9 32 14.5 95.5t5.5 149.5h-22q-38 0 -59.5 -13.5t-27.5 -39.5h-23q0 34 10 57.5t28 38.5q35 27 121 27l102 -3l152 -3q34 0 49.5 7t16.5 21l23 1q0 -53 -23.5 -76.5t-74.5 -23.5h-14l-10 1z" />
    <glyph glyph-name="integral" unicode="&#x222b;" horiz-adv-x="274" 
d="M341 738q23 -18 23 -48q0 -20 -13 -34t-36 -14q-29 0 -44 32t-29 32q-57 0 -57 -310l-3 -98q0 -63 -4.5 -120t-11.5 -109q-12 -90 -31 -133q-24 -55 -62.5 -86t-81.5 -31q-35 0 -58 18.5t-23 48.5q0 22 12.5 34.5t36.5 12.5q29 0 44 -31t30 -32q57 0 57 324l2 84
q0 60 4 116t11 111q12 88 32 135q24 55 61.5 86t82.5 31q36 0 58 -19z" />
    <glyph glyph-name="Omega" unicode="&#x3a9;" horiz-adv-x="768" 
d="M660 107q21 21 21 69h23v-176h-272v180q77 15 122.5 76.5t45.5 151.5q0 106 -59 168.5t-157 62.5t-157 -62.5t-59 -168.5q0 -92 43.5 -151.5t124.5 -76.5v-180h-272v176h23q0 -48 19 -67t69 -19h123v59q-118 21 -183 89t-65 170q0 121 92.5 194t241.5 73t241.5 -73.5
t92.5 -193.5q0 -100 -64 -168t-184 -91v-59h123q48 0 67 17z" />
    <glyph glyph-name="radical" unicode="&#x221a;" horiz-adv-x="549" 
d="M522 764l-290 -784h-32l-156 431l-61 -22l-13 39l138 48l125 -346l252 681h94v-47h-57z" />
    <glyph glyph-name="approxequal" unicode="&#x2248;" horiz-adv-x="549" 
d="M15 177q49 31 87 44.5t74 13.5q44 0 115 -24t99 -24t61.5 15t82.5 52v-78q-42 -28 -76.5 -41.5t-72.5 -13.5q-32 0 -104 23.5t-116 23.5q-28 0 -63 -15q-16 -7 -38.5 -20.5t-48.5 -32.5v77zM15 296q23 14 43.5 25t40.5 18q40 14 76 14q47 0 116 -23q20 -6 51 -15t48 -9
q27 0 60 14.5t84 51.5v-77q-41 -28 -76.5 -41.5t-72.5 -13.5q-33 0 -104.5 23.5t-110.5 23.5q-35 0 -66 -13.5t-89 -54.5v77z" />
    <glyph glyph-name="Delta" unicode="&#x2206;" horiz-adv-x="612" 
d="M463 45l-186 459l-187 -459h373zM19 0l276 672h22l276 -672h-574z" />
    <glyph glyph-name="nonbreakingspace" unicode="&#xa0;" horiz-adv-x="620" 
 />
    <glyph glyph-name="endash" unicode="&#x2013;" horiz-adv-x="610" 
d="M584 509v-170h-558v170h558z" />
    <glyph glyph-name="emdash" unicode="&#x2014;" horiz-adv-x="827" 
d="M801 407v-150h-774v150h774z" />
    <glyph glyph-name="quotedblleft" unicode="&#x201c;" horiz-adv-x="478" 
d="M228 745l1 -146l-59 1v-65h55v-150h-207v201q0 20 18.5 60t47.5 63q50 40 106 40q15 0 24.5 -2t13.5 -2zM459 602h-53v-68h55v-150h-206v209q0 38 19 69q16 26 51 53q27 21 82 32q18 3 52 7v-152z" />
    <glyph glyph-name="quotedblright" unicode="&#x201d;" horiz-adv-x="475" 
d="M222 529q-11 -41 -26.5 -66t-47 -48t-100.5 -35q-11 -2 -30 -4v151l53 -1l1 68l-54 2v148h204v-215zM304 594h-58v152h211v-210q0 -27 -16 -58t-43 -55q-23 -20 -62.5 -34t-66.5 -14q-16 0 -16 6v146h51v67z" />
    <glyph glyph-name="lozenge" unicode="&#x25ca;" horiz-adv-x="494" 
d="M59 289l188 -403l188 403l-188 399zM491 289l-244 -522l-244 522l244 518z" />
    <glyph glyph-name="apple" unicode="&#xf000;" horiz-adv-x="790" 
d="M407 601v11q0 61 46 112t116 64v-12l1 -18q0 -64 -50.5 -114.5t-99.5 -50.5h-4l-8 1zM635 29q-44 -46 -100 -46q-25 0 -64 16t-60 16q-23 0 -64 -16t-62 -16q-18 0 -32 4.5t-29.5 15.5t-31.5 27.5t-33 38.5q-47 65 -75.5 143t-28.5 148q0 107 61.5 174.5t157.5 67.5
q16 0 35.5 -4t40.5 -13q43 -17 60 -17q18 0 61 17t73 17q55 0 97.5 -19.5t77.5 -60.5q-49 -31 -73.5 -70.5t-24.5 -89.5q0 -56 29 -98.5t85 -66.5q-30 -64 -52 -102q-25 -42 -48 -66z" />
  </font>
</defs>
</svg>
